<svg width="474" height="96" viewBox="0 0 474 96" fill="none" xmlns="http://www.w3.org/2000/svg">
<rect width="473.734" height="96" rx="8" fill="#FC5200"/>
<!-- Strava logomark shifted left by 49 to center the text+logo unit -->
<g transform="translate(-49, 0)">
  <path fill-rule="evenodd" clip-rule="evenodd" d="M361.498 63.6388L361.497 63.6374H370.713L376.375 52.2533L382.037 63.6374H393.237L376.374 31.0803L360.368 61.9888L354.222 53.0153C358.017 51.1853 360.382 48.016 360.382 43.4633V43.3737C360.382 40.1604 359.4 37.8391 357.525 35.9641C355.338 33.7771 351.812 32.3934 346.277 32.3934H331.012V63.6388H341.457V54.7114H343.688L349.58 63.6388H361.498ZM425.908 31.0803L409.048 63.6374H420.248L425.909 52.2533L431.571 63.6374H442.771L425.908 31.0803ZM401.152 64.9184L418.012 32.3614H406.812L401.15 43.7455L395.488 32.3614H384.289L401.152 64.9184ZM345.965 47.2572C348.464 47.2572 349.982 46.1413 349.982 44.2221V44.1324C349.982 42.1239 348.419 41.142 346.01 41.142H341.457V47.2572H345.965ZM308.675 41.2313H299.48V32.3934H328.315V41.2313H319.12V63.6388H308.675V41.2313ZM274.029 52.3011L268.449 58.9519C272.422 62.4341 278.135 64.2191 284.473 64.2191C292.865 64.2191 298.266 60.2017 298.266 53.6398V53.5509C298.266 47.2572 292.91 44.9359 284.92 43.4633C281.617 42.8377 280.769 42.3028 280.769 41.4544V41.3652C280.769 40.6064 281.483 40.0708 283.045 40.0708C285.946 40.0708 289.473 41.0081 292.419 43.1505L297.508 36.0984C293.892 33.2415 289.429 31.8128 283.403 31.8128C274.787 31.8128 270.145 36.4108 270.145 42.3471V42.4367C270.145 49.0425 276.305 51.0518 283.313 52.4793C286.661 53.1492 287.642 53.6398 287.642 54.5328V54.6225C287.642 55.4701 286.839 55.9607 284.964 55.9607C281.304 55.9607 277.421 54.8903 274.029 52.3011Z" fill="white"/>
</g>
<!-- "Import from" right-aligned just before shifted logo -->
<text x="205" y="59" text-anchor="end" font-family="'Helvetica Neue', Arial, sans-serif" font-size="23" font-weight="600" fill="white" letter-spacing="0.5">Import from</text>
</svg>
