<svg width="237" height="48" viewBox="0 0 237 48" fill="none" xmlns="http://www.w3.org/2000/svg">
<rect width="236.867" height="48" rx="6" fill="#FC5200"/>
<!-- Strava logomark shifted left by 24.5 to center the text+logo unit -->
<g transform="translate(-24.5, 0)">
  <path fill-rule="evenodd" clip-rule="evenodd" d="M180.749 31.8195L180.748 31.8188H185.357L188.188 26.1268L191.019 31.8188H196.618L188.187 15.5403L180.184 30.9945L177.111 26.5078C179.008 25.5928 180.191 24.0081 180.191 21.7318V21.687C180.191 20.0803 179.7 18.9197 178.763 17.9822C177.669 16.8887 175.906 16.1968 173.139 16.1968H165.506V31.8195H170.728V27.3558H171.844L174.79 31.8195H180.749ZM212.954 15.5403L204.524 31.8188H210.124L212.955 26.1268L215.786 31.8188H221.385L212.954 15.5403ZM200.576 32.4593L209.006 16.1808H203.406L200.575 21.8729L197.744 16.1808H192.144L200.576 32.4593ZM172.982 23.6287C174.232 23.6287 174.991 23.0708 174.991 22.1112V22.0663C174.991 21.0621 174.21 20.5711 173.005 20.5711H170.728V23.6287H172.982ZM154.337 20.6158H149.74V16.1968H164.157V20.6158H159.56V31.8195H154.337V20.6158ZM137.015 26.1507L134.225 29.4761C136.211 31.2172 139.068 32.1097 142.237 32.1097C146.433 32.1097 149.133 30.101 149.133 26.82V26.7756C149.133 23.6287 146.455 22.468 142.46 21.7318C140.808 21.419 140.384 21.1515 140.384 20.7273V20.6827C140.384 20.3033 140.742 20.0355 141.523 20.0355C142.973 20.0355 144.737 20.5042 146.209 21.5754L148.754 18.0493C146.946 16.6209 144.714 15.9065 141.701 15.9065C137.394 15.9065 135.073 18.2055 135.073 21.1737V21.2185C135.073 24.5214 138.153 25.526 141.656 26.2398C143.33 26.5747 143.821 26.82 143.821 27.2665V27.3113C143.821 27.7352 143.42 27.9805 142.482 27.9805C140.652 27.9805 138.711 27.4452 137.015 26.1507Z" fill="white"/>
</g>
<!-- "Import from" right-aligned just before shifted logo -->
<text x="103" y="30" text-anchor="end" font-family="'Helvetica Neue', Arial, sans-serif" font-size="11.5" font-weight="600" fill="white" letter-spacing="0.3">Import from</text>
</svg>
